<svg width="32" height="32" viewBox="0 0 32 32" fill="none" xmlns="http://www.w3.org/2000/svg">
<path d="M8 29.3333H24C25.0609 29.3333 26.0783 28.9119 26.8284 28.1618C27.5786 27.4116 28 26.3942 28 25.3333V9.33334C28 8.62609 27.719 7.94782 27.219 7.44772C26.7189 6.94762 26.0406 6.66667 25.3333 6.66667H22.6667V4.00001C22.6667 3.64638 22.5262 3.30724 22.2761 3.0572C22.0261 2.80715 21.687 2.66667 21.3333 2.66667C20.9797 2.66667 20.6406 2.80715 20.3905 3.0572C20.1405 3.30724 20 3.64638 20 4.00001V6.66667H12V4.00001C12 3.64638 11.8595 3.30724 11.6095 3.0572C11.3594 2.80715 11.0203 2.66667 10.6667 2.66667C10.313 2.66667 9.97391 2.80715 9.72386 3.0572C9.47381 3.30724 9.33333 3.64638 9.33333 4.00001V6.66667H6.66667C5.95942 6.66667 5.28115 6.94762 4.78105 7.44772C4.28095 7.94782 4 8.62609 4 9.33334V25.3333C4 26.3942 4.42143 27.4116 5.17157 28.1618C5.92172 28.9119 6.93913 29.3333 8 29.3333ZM6.66667 16.6667C6.66667 16.4899 6.7369 16.3203 6.86193 16.1953C6.98695 16.0702 7.15652 16 7.33333 16H24.6667C24.8435 16 25.013 16.0702 25.1381 16.1953C25.2631 16.3203 25.3333 16.4899 25.3333 16.6667V25.3333C25.3333 25.687 25.1929 26.0261 24.9428 26.2761C24.6928 26.5262 24.3536 26.6667 24 26.6667H8C7.64638 26.6667 7.30724 26.5262 7.05719 26.2761C6.80714 26.0261 6.66667 25.687 6.66667 25.3333V16.6667Z" fill="#A1A1AA"/>
</svg>
