<svg width="32" height="32" viewBox="0 0 32 32" fill="none" xmlns="http://www.w3.org/2000/svg">
<path d="M16 2.66667C13.3629 2.66667 10.785 3.44865 8.59239 4.91374C6.39974 6.37883 4.69077 8.46121 3.6816 10.8976C2.67243 13.3339 2.40839 16.0148 2.92286 18.6012C3.43733 21.1876 4.70721 23.5634 6.57191 25.4281C8.43661 27.2928 10.8124 28.5627 13.3988 29.0771C15.9852 29.5916 18.6661 29.3276 21.1024 28.3184C23.5388 27.3092 25.6212 25.6003 27.0863 23.4076C28.5513 21.2149 29.3333 18.6371 29.3333 16C29.3333 14.249 28.9885 12.5152 28.3184 10.8976C27.6483 9.27988 26.6662 7.81003 25.4281 6.57191C24.19 5.3338 22.7201 4.35167 21.1024 3.68161C19.4848 3.01154 17.751 2.66667 16 2.66667ZM22.6667 17.3333H16C15.6464 17.3333 15.3072 17.1929 15.0572 16.9428C14.8071 16.6928 14.6667 16.3536 14.6667 16V8C14.6667 7.64638 14.8071 7.30724 15.0572 7.05719C15.3072 6.80714 15.6464 6.66667 16 6.66667C16.3536 6.66667 16.6928 6.80714 16.9428 7.05719C17.1929 7.30724 17.3333 7.64638 17.3333 8V14.6667H22.6667C23.0203 14.6667 23.3594 14.8071 23.6095 15.0572C23.8595 15.3072 24 15.6464 24 16C24 16.3536 23.8595 16.6928 23.6095 16.9428C23.3594 17.1929 23.0203 17.3333 22.6667 17.3333Z" fill="#A1A1AA"/>
</svg>
