<svg width="24" height="24" viewBox="0 0 24 24" fill="none" xmlns="http://www.w3.org/2000/svg">
<path d="M7 12C7 11.0111 7.29324 10.0444 7.84265 9.22215C8.39206 8.3999 9.17295 7.75904 10.0866 7.3806C11.0002 7.00216 12.0055 6.90315 12.9755 7.09607C13.9454 7.289 14.8363 7.7652 15.5355 8.46447C16.2348 9.16373 16.711 10.0546 16.9039 11.0245C17.0969 11.9945 16.9978 12.9998 16.6194 13.9134C16.241 14.827 15.6001 15.6079 14.7779 16.1573C13.9556 16.7068 12.9889 17 12 17C10.6739 17 9.40215 16.4732 8.46447 15.5355C7.52678 14.5979 7 13.3261 7 12V12ZM12 5C12.2652 5 12.5196 4.89464 12.7071 4.70711C12.8946 4.51957 13 4.26522 13 4V3C13 2.73478 12.8946 2.48043 12.7071 2.29289C12.5196 2.10536 12.2652 2 12 2C11.7348 2 11.4804 2.10536 11.2929 2.29289C11.1054 2.48043 11 2.73478 11 3V4C11 4.26522 11.1054 4.51957 11.2929 4.70711C11.4804 4.89464 11.7348 5 12 5ZM11 20V21C11 21.2652 11.1054 21.5196 11.2929 21.7071C11.4804 21.8946 11.7348 22 12 22C12.2652 22 12.5196 21.8946 12.7071 21.7071C12.8946 21.5196 13 21.2652 13 21V20C13 19.7348 12.8946 19.4804 12.7071 19.2929C12.5196 19.1054 12.2652 19 12 19C11.7348 19 11.4804 19.1054 11.2929 19.2929C11.1054 19.4804 11 19.7348 11 20ZM21 11H20C19.7348 11 19.4804 11.1054 19.2929 11.2929C19.1054 11.4804 19 11.7348 19 12C19 12.2652 19.1054 12.5196 19.2929 12.7071C19.4804 12.8946 19.7348 13 20 13H21C21.2652 13 21.5196 12.8946 21.7071 12.7071C21.8946 12.5196 22 12.2652 22 12C22 11.7348 21.8946 11.4804 21.7071 11.2929C21.5196 11.1054 21.2652 11 21 11ZM3 13H4C4.26522 13 4.51957 12.8946 4.70711 12.7071C4.89464 12.5196 5 12.2652 5 12C5 11.7348 4.89464 11.4804 4.70711 11.2929C4.51957 11.1054 4.26522 11 4 11H3C2.73478 11 2.48043 11.1054 2.29289 11.2929C2.10536 11.4804 2 11.7348 2 12C2 12.2652 2.10536 12.5196 2.29289 12.7071C2.48043 12.8946 2.73478 13 3 13V13ZM17.657 7.343C17.9222 7.34294 18.1765 7.23755 18.364 7.05L19.071 6.343C19.1665 6.25075 19.2427 6.14041 19.2951 6.0184C19.3475 5.8964 19.3751 5.76518 19.3763 5.6324C19.3774 5.49962 19.3521 5.36794 19.3018 5.24505C19.2515 5.12215 19.1773 5.0105 19.0834 4.9166C18.9895 4.82271 18.8778 4.74846 18.755 4.69818C18.6321 4.6479 18.5004 4.6226 18.3676 4.62375C18.2348 4.6249 18.1036 4.65249 17.9816 4.7049C17.8596 4.75731 17.7492 4.83349 17.657 4.929L16.95 5.636C16.8102 5.77585 16.715 5.95402 16.6764 6.14797C16.6378 6.34192 16.6577 6.54295 16.7333 6.72565C16.809 6.90835 16.9371 7.06452 17.1015 7.1744C17.266 7.28429 17.4592 7.34296 17.657 7.343ZM5.636 16.95L4.929 17.657C4.83349 17.7492 4.75731 17.8596 4.7049 17.9816C4.65249 18.1036 4.6249 18.2348 4.62375 18.3676C4.6226 18.5004 4.6479 18.6321 4.69818 18.755C4.74846 18.8778 4.82271 18.9895 4.9166 19.0834C5.0105 19.1773 5.12215 19.2515 5.24505 19.3018C5.36794 19.3521 5.49962 19.3774 5.6324 19.3763C5.76518 19.3751 5.8964 19.3475 6.0184 19.2951C6.14041 19.2427 6.25075 19.1665 6.343 19.071L7.05 18.364C7.23216 18.1754 7.33295 17.9228 7.33067 17.6606C7.3284 17.3984 7.22323 17.1476 7.03782 16.9622C6.85241 16.7768 6.6016 16.6716 6.3394 16.6693C6.0772 16.667 5.8246 16.7678 5.636 16.95ZM16.95 16.95C16.7625 17.1375 16.6572 17.3918 16.6572 17.657C16.6572 17.9222 16.7625 18.1765 16.95 18.364L17.657 19.071C17.8456 19.2532 18.0982 19.354 18.3604 19.3517C18.6226 19.3494 18.8734 19.2442 19.0588 19.0588C19.2442 18.8734 19.3494 18.6226 19.3517 18.3604C19.354 18.0982 19.2532 17.8456 19.071 17.657L18.364 16.95C18.1765 16.7625 17.9222 16.6572 17.657 16.6572C17.3918 16.6572 17.1375 16.7625 16.95 16.95ZM5.636 7.05C5.8246 7.23216 6.0772 7.33295 6.3394 7.33067C6.6016 7.3284 6.85241 7.22323 7.03782 7.03782C7.22323 6.85241 7.3284 6.6016 7.33067 6.3394C7.33295 6.0772 7.23216 5.8246 7.05 5.636L6.343 4.929C6.1544 4.74684 5.9018 4.64605 5.6396 4.64833C5.3774 4.6506 5.12659 4.75577 4.94118 4.94118C4.75577 5.12659 4.6506 5.3774 4.64833 5.6396C4.64605 5.9018 4.74684 6.1544 4.929 6.343L5.636 7.05Z" fill="#FBBF24"/>
</svg>
