<svg width="24" height="24" viewBox="0 0 24 24" fill="none" xmlns="http://www.w3.org/2000/svg">
<path d="M11.993 3C11.2442 4.37329 10.8529 5.91285 10.855 7.477C10.7973 9.8084 11.6673 12.0674 13.274 13.7577C14.8807 15.4481 17.0927 16.4315 19.424 16.492C19.624 16.492 19.809 16.475 20 16.462C19.2856 17.8181 18.2179 18.9559 16.9097 19.7547C15.6015 20.5536 14.1017 20.9839 12.569 21C10.2377 20.9395 8.02571 19.9561 6.419 18.2657C4.81229 16.5754 3.94225 14.3164 4.00002 11.985C3.95086 9.75464 4.74777 7.58833 6.23056 5.92151C7.71335 4.2547 9.7721 3.21093 11.993 3V3Z" fill="#FBBF24"/>
</svg>
