<svg width="24" height="24" viewBox="0 0 24 24" fill="none" xmlns="http://www.w3.org/2000/svg">
<path d="M22 15.5C22 16.6935 21.5259 17.8381 20.682 18.682C19.8381 19.5259 18.6935 20 17.5 20H6.5C5.30653 20 4.16193 19.5259 3.31802 18.682C2.47411 17.8381 2 16.6935 2 15.5C2 14.3065 2.47411 13.1619 3.31802 12.318C4.16193 11.4741 5.30653 11 6.5 11V9.5C6.5 8.04131 7.07946 6.64236 8.11091 5.61091C9.14236 4.57946 10.5413 4 12 4C13.4587 4 14.8576 4.57946 15.8891 5.61091C16.9205 6.64236 17.5 8.04131 17.5 9.5V11C18.6935 11 19.8381 11.4741 20.682 12.318C21.5259 13.1619 22 14.3065 22 15.5V15.5Z" fill="#D4D4D8"/>
</svg>
