<svg width="24" height="24" viewBox="0 0 24 24" fill="none" xmlns="http://www.w3.org/2000/svg">
<path d="M17.9999 7C17.5445 7.00444 17.0932 7.08732 16.6659 7.245C16.3124 6.29248 15.6758 5.47097 14.8417 4.89084C14.0076 4.31071 13.0159 3.99976 11.9999 3.99976C10.9839 3.99976 9.99225 4.31071 9.15815 4.89084C8.32404 5.47097 7.68746 6.29248 7.33394 7.245C6.73195 7.02276 6.08499 6.95006 5.44869 7.03316C4.81238 7.11626 4.20579 7.35267 3.68107 7.72206C3.15634 8.09145 2.72919 8.58277 2.43636 9.15376C2.14352 9.72475 1.99375 10.3583 1.99994 11C1.99986 11.3373 2.0422 11.6733 2.12594 12H21.8739C22.0265 11.4088 22.0418 10.7906 21.9186 10.1926C21.7953 9.59459 21.5368 9.03275 21.1629 8.55011C20.7889 8.06747 20.3095 7.67684 19.7612 7.40815C19.2129 7.13946 18.6105 6.99985 17.9999 7Z" fill="#D4D4D8"/>
<path d="M21.9999 15C21.9999 15.2652 21.8945 15.5196 21.707 15.7071C21.5195 15.8946 21.2651 16 20.9999 16H2.99994C2.73472 16 2.48037 15.8946 2.29283 15.7071C2.1053 15.5196 1.99994 15.2652 1.99994 15C1.99994 14.7348 2.1053 14.4804 2.29283 14.2929C2.48037 14.1054 2.73472 14 2.99994 14H20.9999C21.2651 14 21.5195 14.1054 21.707 14.2929C21.8945 14.4804 21.9999 14.7348 21.9999 15Z" fill="#BFDBFE"/>
<path d="M16.9999 18H6.99994C6.73472 18 6.48037 18.1054 6.29283 18.2929C6.1053 18.4804 5.99994 18.7348 5.99994 19C5.99994 19.2652 6.1053 19.5196 6.29283 19.7071C6.48037 19.8946 6.73472 20 6.99994 20H16.9999C17.2651 20 17.5195 19.8946 17.707 19.7071C17.8945 19.5196 17.9999 19.2652 17.9999 19C17.9999 18.7348 17.8945 18.4804 17.707 18.2929C17.5195 18.1054 17.2651 18 16.9999 18Z" fill="#BFDBFE"/>
</svg>
