<svg width="24" height="24" viewBox="0 0 24 24" fill="none" xmlns="http://www.w3.org/2000/svg">
<path d="M14.4938 6.83921C14.2153 6.30685 14.0506 5.72241 14.01 5.123C13.4978 5.25729 13.0175 5.49248 12.5973 5.81479C12.1771 6.1371 11.8255 6.54004 11.563 7C12.9276 7.80288 13.979 9.0454 14.545 10.524C15.8798 9.92575 17.3869 9.83473 18.784 10.268C18.9157 9.8966 18.9886 9.5069 19 9.113C18.4064 9.20531 17.8 9.17318 17.2194 9.01866C16.6389 8.86414 16.0968 8.5906 15.6275 8.21541C15.1583 7.84021 14.7722 7.37156 14.4938 6.83921Z" fill="#FBBF24"/>
<path d="M20.565 11.182C20.8473 10.4889 20.9949 9.74836 21 9C20.998 8.50999 20.9362 8.02205 20.816 7.547C20.7794 7.40098 20.7104 7.2651 20.6139 7.14949C20.5175 7.03389 20.3962 6.94154 20.2592 6.87934C20.1221 6.81715 19.9727 6.7867 19.8222 6.79028C19.6717 6.79385 19.524 6.83136 19.39 6.9C19.0352 7.07969 18.6405 7.16579 18.2431 7.15015C17.8457 7.1345 17.4589 7.01762 17.1194 6.81059C16.7798 6.60356 16.4988 6.31323 16.3029 5.96715C16.107 5.62106 16.0027 5.23067 16 4.833C16.0037 4.6375 16.0322 4.44327 16.085 4.255C16.1167 4.11073 16.1165 3.96131 16.0846 3.81711C16.0526 3.67291 15.9896 3.5374 15.9 3.42C15.8094 3.30008 15.6942 3.20098 15.562 3.12939C15.4299 3.0578 15.2839 3.01539 15.134 3.005L15 3C13.9076 3.00037 12.8363 3.30113 11.9033 3.86939C10.9703 4.43765 10.2116 5.25152 9.70998 6.222C10.2159 6.41129 11.2949 6.83188 11.563 7C11.8255 6.54004 12.1771 6.1371 12.5973 5.81479C13.0175 5.49248 13.4978 5.25729 14.01 5.123C14.0506 5.72241 14.2153 6.30685 14.4938 6.83921C14.7722 7.37156 15.1583 7.84021 15.6275 8.21541C16.0968 8.5906 16.6389 8.86414 17.2194 9.01866C17.8 9.17318 18.4064 9.20531 19 9.113C18.9886 9.5069 18.9157 9.8966 18.784 10.268C19.1955 10.4227 20.1279 10.822 20.565 11.182Z" fill="#FBBF24"/>
<path d="M18 19H8.72898C7.21004 18.9984 5.75377 18.3943 4.67972 17.3203C3.60567 16.2462 3.00157 14.7899 2.99998 13.271C2.97631 11.9479 3.45852 10.6657 4.34815 9.68616C5.23779 8.70657 6.46777 8.10348 7.78698 8C8.49926 7.97329 9.20887 8.10123 9.86698 8.375C10.6628 8.70639 11.3615 9.23406 11.8981 9.90874C12.4346 10.5834 12.7913 11.3831 12.935 12.233C12.9615 12.4057 13.0327 12.5684 13.1416 12.705C13.2505 12.8415 13.3933 12.9472 13.5558 13.0114C13.7182 13.0756 13.8946 13.0962 14.0675 13.071C14.2404 13.0459 14.4036 12.9759 14.541 12.868C15.1332 12.3861 15.8546 12.0898 16.6145 12.0161C17.3745 11.9425 18.1393 12.0948 18.813 12.454H18.826C19.4796 12.7877 20.0285 13.2954 20.4121 13.921C20.7956 14.5467 20.9991 15.2661 21 16C21 16.7956 20.6839 17.5587 20.1213 18.1213C19.5587 18.6839 18.7957 19 18 19Z" fill="#D4D4D8"/>
<path fill-rule="evenodd" clip-rule="evenodd" d="M9.70998 6.222C9.05579 6.05243 8.38028 5.97965 7.70498 6.006C5.87225 6.13507 4.15788 6.95874 2.91181 8.30888C1.66575 9.65902 0.981943 11.4338 0.999982 13.271C1.0021 15.3202 1.81708 17.2849 3.26609 18.7339C4.7151 20.1829 6.67977 20.9979 8.72898 21H18C19.3256 20.9984 20.5965 20.4711 21.5338 19.5338C22.4711 18.5964 22.9984 17.3256 23 16C23.0022 15.2116 22.8479 14.4307 22.5461 13.7024C22.2444 12.974 21.8011 12.3128 21.242 11.757C21.0308 11.5489 20.8045 11.3567 20.565 11.182C20.1279 10.822 19.1955 10.4227 18.784 10.268C17.3869 9.83473 15.8798 9.92575 14.545 10.524C13.979 9.0454 12.9276 7.80288 11.563 7C11.2949 6.83188 10.2159 6.41129 9.70998 6.222ZM8.72898 19H18C18.7957 19 19.5587 18.6839 20.1213 18.1213C20.6839 17.5587 21 16.7956 21 16C20.9991 15.2661 20.7956 14.5467 20.4121 13.921C20.0285 13.2954 19.4796 12.7877 18.826 12.454H18.813C18.1393 12.0948 17.3745 11.9425 16.6145 12.0161C15.8546 12.0898 15.1332 12.3861 14.541 12.868C14.4036 12.9759 14.2404 13.0459 14.0675 13.071C13.8946 13.0962 13.7182 13.0756 13.5558 13.0114C13.3933 12.9472 13.2505 12.8415 13.1416 12.705C13.0327 12.5684 12.9615 12.4057 12.935 12.233C12.7913 11.3831 12.4346 10.5834 11.8981 9.90874C11.3615 9.23406 10.6628 8.70639 9.86698 8.375C9.20887 8.10123 8.49926 7.97329 7.78698 8C6.46777 8.10348 5.23779 8.70657 4.34815 9.68616C3.45852 10.6657 2.97631 11.9479 2.99998 13.271C3.00157 14.7899 3.60567 16.2462 4.67972 17.3203C5.75377 18.3943 7.21004 18.9984 8.72898 19Z" fill="#D4D4D8"/>
</svg>
