<svg width="24" height="24" viewBox="0 0 24 24" fill="none" xmlns="http://www.w3.org/2000/svg">
<path d="M9.6039 6.50424C8.38235 7.04043 7.3748 7.96911 6.74104 9.143L9.22204 9.147C9.78219 8.59459 10.4934 8.22048 11.266 8.07189C12.0385 7.9233 12.8378 8.00689 13.5629 8.3121C14.288 8.61731 14.9064 9.13047 15.3402 9.78682C15.7739 10.4432 16.0035 11.2133 16 12C15.9989 12.3372 15.9531 12.6728 15.864 12.998L17.891 13.09C17.9613 12.7309 17.9978 12.3659 18 12C18.0026 10.666 17.5598 9.36923 16.7417 8.31548C15.9236 7.26173 14.7771 6.51128 13.4841 6.18317C12.191 5.85505 10.8254 5.96805 9.6039 6.50424Z" fill="#FBBF24"/>
<path d="M18.364 7.05L19.071 6.343C19.1665 6.25075 19.2427 6.14041 19.2951 6.0184C19.3475 5.8964 19.3751 5.76518 19.3763 5.6324C19.3774 5.49962 19.3521 5.36794 19.3018 5.24505C19.2516 5.12215 19.1773 5.0105 19.0834 4.9166C18.9895 4.82271 18.8779 4.74846 18.755 4.69818C18.6321 4.6479 18.5004 4.6226 18.3676 4.62375C18.2348 4.6249 18.1036 4.65249 17.9816 4.7049C17.8596 4.75731 17.7493 4.83349 17.657 4.929L16.95 5.636C16.7679 5.8246 16.6671 6.0772 16.6693 6.3394C16.6716 6.6016 16.7768 6.85241 16.9622 7.03782C17.1476 7.22323 17.3984 7.3284 17.6606 7.33067C17.9228 7.33295 18.1754 7.23216 18.364 7.05Z" fill="#FBBF24"/>
<path d="M19 12C19 12.2652 19.1054 12.5196 19.2929 12.7071C19.4804 12.8946 19.7348 13 20 13H21C21.2652 13 21.5196 12.8946 21.7071 12.7071C21.8947 12.5196 22 12.2652 22 12C22 11.7348 21.8947 11.4804 21.7071 11.2929C21.5196 11.1054 21.2652 11 21 11H20C19.7348 11 19.4804 11.1054 19.2929 11.2929C19.1054 11.4804 19 11.7348 19 12Z" fill="#FBBF24"/>
<path d="M11 4V3C11 2.73478 11.1054 2.48043 11.2929 2.29289C11.4804 2.10536 11.7348 2 12 2C12.2652 2 12.5196 2.10536 12.7071 2.29289C12.8947 2.48043 13 2.73478 13 3V4C13 4.26522 12.8947 4.51957 12.7071 4.70711C12.5196 4.89464 12.2652 5 12 5C11.7348 5 11.4804 4.89464 11.2929 4.70711C11.1054 4.51957 11 4.26522 11 4Z" fill="#FBBF24"/>
<path d="M5.63604 7.05C5.82464 7.23216 6.07724 7.33295 6.33944 7.33067C6.60164 7.3284 6.85245 7.22323 7.03786 7.03782C7.22327 6.85241 7.32844 6.6016 7.33071 6.3394C7.33299 6.0772 7.2322 5.8246 7.05004 5.636L6.34304 4.929C6.15444 4.74684 5.90184 4.64605 5.63964 4.64833C5.37744 4.6506 5.12663 4.75577 4.94122 4.94118C4.75581 5.12659 4.65064 5.3774 4.64837 5.6396C4.64609 5.9018 4.74688 6.1544 4.92904 6.343L5.63604 7.05Z" fill="#FBBF24"/>
<path d="M20.8284 20.8284C21.5786 20.0783 22 19.0609 22 18C21.999 16.8298 21.5871 15.6971 20.8361 14.7997C20.0851 13.9023 19.0427 13.2972 17.891 13.09L15.864 12.998C15.1422 13.0162 14.4301 13.1684 13.764 13.447C13.4785 12.3804 12.9029 11.4138 12.1011 10.6547C11.2992 9.89561 10.3026 9.37371 9.22204 9.147L6.74104 9.143C5.37709 9.48301 4.16745 10.2726 3.3073 11.3844C2.44714 12.4962 1.98662 13.8654 2.00004 15.271C2.00004 17.0556 2.70899 18.7672 3.97092 20.0291C5.23285 21.2911 6.9444 22 8.72904 22H18C19.0609 22 20.0783 21.5786 20.8284 20.8284Z" fill="#D4D4D8"/>
<path d="M16 12C16.0035 11.2133 15.7739 10.4432 15.3402 9.78682C14.9064 9.13047 14.288 8.61731 13.5629 8.3121C12.8378 8.00689 12.0385 7.9233 11.266 8.07189C10.4934 8.22048 9.78219 8.59459 9.22204 9.147C10.3026 9.37371 11.2992 9.89561 12.1011 10.6547C12.9029 11.4138 13.4785 12.3804 13.764 13.447C14.4301 13.1684 15.1422 13.0162 15.864 12.998C15.9531 12.6728 15.9989 12.3372 16 12Z" fill="#FBBF24"/>
</svg>
