<svg width="24" height="24" viewBox="0 0 24 24" fill="none" xmlns="http://www.w3.org/2000/svg">
<path d="M23 12C23 12.2652 22.8946 12.5196 22.7071 12.7071C22.5196 12.8946 22.2652 13 22 13H18.414L20.707 15.293C20.8892 15.4816 20.99 15.7342 20.9877 15.9964C20.9854 16.2586 20.8802 16.5094 20.6948 16.6948C20.5094 16.8802 20.2586 16.9854 19.9964 16.9877C19.7342 16.99 19.4816 16.8892 19.293 16.707L15.586 13H13V15.586L16.707 19.293C16.8892 19.4816 16.99 19.7342 16.9877 19.9964C16.9854 20.2586 16.8802 20.5094 16.6948 20.6948C16.5094 20.8802 16.2586 20.9854 15.9964 20.9877C15.7342 20.99 15.4816 20.8892 15.293 20.707L13 18.414V22C13 22.2652 12.8946 22.5196 12.7071 22.7071C12.5196 22.8946 12.2652 23 12 23C11.7348 23 11.4804 22.8946 11.2929 22.7071C11.1054 22.5196 11 22.2652 11 22V18.414L8.707 20.707C8.61475 20.8025 8.50441 20.8787 8.3824 20.9311C8.2604 20.9835 8.12918 21.0111 7.9964 21.0123C7.86362 21.0134 7.73194 20.9881 7.60905 20.9378C7.48615 20.8875 7.3745 20.8133 7.2806 20.7194C7.18671 20.6255 7.11246 20.5138 7.06218 20.391C7.0119 20.2681 6.9866 20.1364 6.98775 20.0036C6.9889 19.8708 7.01649 19.7396 7.0689 19.6176C7.12131 19.4956 7.19749 19.3852 7.293 19.293L11 15.586V13H8.414L4.707 16.707C4.5184 16.8892 4.2658 16.99 4.0036 16.9877C3.7414 16.9854 3.49059 16.8802 3.30518 16.6948C3.11977 16.5094 3.0146 16.2586 3.01233 15.9964C3.01005 15.7342 3.11084 15.4816 3.293 15.293L5.586 13H2C1.73478 13 1.48043 12.8946 1.29289 12.7071C1.10536 12.5196 1 12.2652 1 12C1 11.7348 1.10536 11.4804 1.29289 11.2929C1.48043 11.1054 1.73478 11 2 11H5.586L3.293 8.707C3.19749 8.61475 3.12131 8.50441 3.0689 8.3824C3.01649 8.2604 2.9889 8.12918 2.98775 7.9964C2.9866 7.86362 3.0119 7.73194 3.06218 7.60905C3.11246 7.48615 3.18671 7.3745 3.28061 7.2806C3.3745 7.18671 3.48615 7.11246 3.60905 7.06218C3.73194 7.0119 3.86362 6.9866 3.9964 6.98775C4.12918 6.9889 4.2604 7.01649 4.3824 7.0689C4.50441 7.12131 4.61475 7.19749 4.707 7.293L8.414 11H11V8.414L7.293 4.707C7.19749 4.61475 7.12131 4.50441 7.0689 4.3824C7.01649 4.2604 6.9889 4.12918 6.98775 3.9964C6.9866 3.86362 7.0119 3.73194 7.06218 3.60905C7.11246 3.48615 7.18671 3.3745 7.2806 3.28061C7.3745 3.18671 7.48615 3.11246 7.60905 3.06218C7.73194 3.0119 7.86362 2.9866 7.9964 2.98775C8.12918 2.9889 8.2604 3.01649 8.3824 3.0689C8.50441 3.12131 8.61475 3.19749 8.707 3.293L11 5.586V2C11 1.73478 11.1054 1.48043 11.2929 1.29289C11.4804 1.10536 11.7348 1 12 1C12.2652 1 12.5196 1.10536 12.7071 1.29289C12.8946 1.48043 13 1.73478 13 2V5.586L15.293 3.293C15.3852 3.19749 15.4956 3.12131 15.6176 3.0689C15.7396 3.01649 15.8708 2.9889 16.0036 2.98775C16.1364 2.9866 16.2681 3.0119 16.391 3.06218C16.5138 3.11246 16.6255 3.18671 16.7194 3.28061C16.8133 3.3745 16.8875 3.48615 16.9378 3.60905C16.9881 3.73194 17.0134 3.86362 17.0123 3.9964C17.0111 4.12918 16.9835 4.2604 16.9311 4.3824C16.8787 4.50441 16.8025 4.61475 16.707 4.707L13 8.414V11H15.586L19.293 7.293C19.3852 7.19749 19.4956 7.12131 19.6176 7.0689C19.7396 7.01649 19.8708 6.9889 20.0036 6.98775C20.1364 6.9866 20.2681 7.0119 20.391 7.06218C20.5138 7.11246 20.6255 7.18671 20.7194 7.2806C20.8133 7.3745 20.8875 7.48615 20.9378 7.60905C20.9881 7.73194 21.0134 7.86362 21.0123 7.9964C21.0111 8.12918 20.9835 8.2604 20.9311 8.3824C20.8787 8.50441 20.8025 8.61475 20.707 8.707L18.414 11H22C22.2652 11 22.5196 11.1054 22.7071 11.2929C22.8946 11.4804 23 11.7348 23 12Z" fill="#BFDBFE"/>
</svg>
