<svg width="24" height="24" viewBox="0 0 24 24" fill="none" xmlns="http://www.w3.org/2000/svg">
<path d="M22 7C22 8.06087 21.5786 9.07828 20.8284 9.82843C20.0783 10.5786 19.0609 11 18 11H5C4.73478 11 4.48043 10.8946 4.29289 10.7071C4.10536 10.5196 4 10.2652 4 10C4 9.73478 4.10536 9.48043 4.29289 9.29289C4.48043 9.10536 4.73478 9 5 9H18C18.3956 9 18.7822 8.8827 19.1111 8.66294C19.44 8.44318 19.6964 8.13082 19.8478 7.76537C19.9991 7.39991 20.0387 6.99778 19.9616 6.60982C19.8844 6.22186 19.6939 5.86549 19.4142 5.58579C19.1345 5.30608 18.7781 5.1156 18.3902 5.03843C18.0022 4.96126 17.6001 5.00087 17.2346 5.15224C16.8692 5.30362 16.5568 5.55996 16.3371 5.88886C16.1173 6.21776 16 6.60444 16 7C16 7.26522 15.8946 7.51957 15.7071 7.70711C15.5196 7.89464 15.2652 8 15 8C14.7348 8 14.4804 7.89464 14.2929 7.70711C14.1054 7.51957 14 7.26522 14 7C14 5.93913 14.4214 4.92172 15.1716 4.17157C15.9217 3.42143 16.9391 3 18 3C19.0609 3 20.0783 3.42143 20.8284 4.17157C21.5786 4.92172 22 5.93913 22 7V7ZM18 13H7C6.73478 13 6.48043 13.1054 6.29289 13.2929C6.10536 13.4804 6 13.7348 6 14C6 14.2652 6.10536 14.5196 6.29289 14.7071C6.48043 14.8946 6.73478 15 7 15H18C18.3956 15 18.7822 15.1173 19.1111 15.3371C19.44 15.5568 19.6964 15.8692 19.8478 16.2346C19.9991 16.6001 20.0387 17.0022 19.9616 17.3902C19.8844 17.7781 19.6939 18.1345 19.4142 18.4142C19.1345 18.6939 18.7781 18.8844 18.3902 18.9616C18.0022 19.0387 17.6001 18.9991 17.2346 18.8478C16.8692 18.6964 16.5568 18.44 16.3371 18.1111C16.1173 17.7822 16 17.3956 16 17C16 16.7348 15.8946 16.4804 15.7071 16.2929C15.5196 16.1054 15.2652 16 15 16C14.7348 16 14.4804 16.1054 14.2929 16.2929C14.1054 16.4804 14 16.7348 14 17C14 17.7911 14.2346 18.5645 14.6741 19.2223C15.1136 19.8801 15.7384 20.3928 16.4693 20.6955C17.2002 20.9983 18.0044 21.0775 18.7804 20.9231C19.5563 20.7688 20.269 20.3878 20.8284 19.8284C21.3878 19.269 21.7688 18.5563 21.9231 17.7804C22.0775 17.0044 21.9983 16.2002 21.6955 15.4693C21.3928 14.7384 20.8801 14.1136 20.2223 13.6741C19.5645 13.2346 18.7911 13 18 13ZM8 19C8.26522 19 8.51957 18.8946 8.70711 18.7071C8.89464 18.5196 9 18.2652 9 18C9 17.7348 8.89464 17.4804 8.70711 17.2929C8.51957 17.1054 8.26522 17 8 17H3C2.73478 17 2.48043 17.1054 2.29289 17.2929C2.10536 17.4804 2 17.7348 2 18C2 18.2652 2.10536 18.5196 2.29289 18.7071C2.48043 18.8946 2.73478 19 3 19H8ZM2 6C2 6.26522 2.10536 6.51957 2.29289 6.70711C2.48043 6.89464 2.73478 7 3 7H11C11.2652 7 11.5196 6.89464 11.7071 6.70711C11.8946 6.51957 12 6.26522 12 6C12 5.73478 11.8946 5.48043 11.7071 5.29289C11.5196 5.10536 11.2652 5 11 5H3C2.73478 5 2.48043 5.10536 2.29289 5.29289C2.10536 5.48043 2 5.73478 2 6V6Z" fill="#D4D4D8"/>
</svg>
